<?xml version="1.0" standalone="no"?>
<!DOCTYPE svg PUBLIC "-//W3C//DTD SVG 20010904//EN"
 "http://www.w3.org/TR/2001/REC-SVG-20010904/DTD/svg10.dtd">
<svg version="1.0" xmlns="http://www.w3.org/2000/svg"
 width="1000.000000pt" height="1000.000000pt" viewBox="0 0 1000.000000 1000.000000"
 preserveAspectRatio="xMidYMid meet">

<g transform="translate(0.000000,1000.000000) scale(0.100000,-0.100000)"
fill="#000000" stroke="none">
<path d="M0 5000 l0 -5000 5000 0 5000 0 0 5000 0 5000 -5000 0 -5000 0 0
-5000z m7249 3645 c35 -9 87 -28 114 -43 67 -36 194 -174 283 -307 164 -246
324 -656 324 -831 0 -79 -12 -106 -59 -132 -69 -38 -92 -41 -996 -128 -616
-59 -736 -72 -743 -79 -6 -6 -409 -1612 -566 -2260 -250 -1027 -548 -2356
-700 -3120 -63 -315 -77 -354 -140 -384 -101 -49 -204 -39 -533 55 -386 109
-600 195 -714 287 -66 53 -133 148 -154 220 -20 67 -19 141 5 414 83 920 258
2089 516 3443 72 381 209 1045 221 1077 5 13 0 15 -28 9 -19 -3 -158 -24 -309
-46 -151 -23 -318 -50 -370 -61 -52 -11 -126 -27 -165 -35 -98 -22 -237 -22
-302 0 -139 46 -347 243 -498 471 -76 115 -262 453 -348 633 -38 79 -51 119
-54 166 -5 62 -5 63 33 94 73 60 208 94 699 176 958 160 2711 339 3870 396
245 12 533 5 614 -15z"/>
</g>
</svg>
